<?xml version="1.0" encoding="UTF-8" standalone="no"?>
<!-- Generator: Adobe Illustrator 16.0.0, SVG Export Plug-In . SVG Version: 6.00 Build 0)  -->

<svg
   xmlns:dc="http://purl.org/dc/elements/1.1/"
   xmlns:cc="http://creativecommons.org/ns#"
   xmlns:rdf="http://www.w3.org/1999/02/22-rdf-syntax-ns#"
   xmlns:svg="http://www.w3.org/2000/svg"
   xmlns="http://www.w3.org/2000/svg"
   xmlns:sodipodi="http://sodipodi.sourceforge.net/DTD/sodipodi-0.dtd"
   xmlns:inkscape="http://www.inkscape.org/namespaces/inkscape"
   version="1.1"
   id="Capa_1"
   x="0px"
   y="0px"
   width="119.298px"
   height="119.298px"
   viewBox="0 0 119.298 119.298"
   style="enable-background:new 0 0 119.298 119.298;"
   xml:space="preserve"
   inkscape:version="0.48.5 r10040"
   sodipodi:docname="attack.svg"><metadata
     id="metadata45"><rdf:RDF><cc:Work
         rdf:about=""><dc:format>image/svg+xml</dc:format><dc:type
           rdf:resource="http://purl.org/dc/dcmitype/StillImage" /></cc:Work></rdf:RDF></metadata><defs
     id="defs43" /><sodipodi:namedview
     pagecolor="#ffffff"
     bordercolor="#666666"
     borderopacity="1"
     objecttolerance="10"
     gridtolerance="10"
     guidetolerance="10"
     inkscape:pageopacity="0"
     inkscape:pageshadow="2"
     inkscape:window-width="1600"
     inkscape:window-height="837"
     id="namedview41"
     showgrid="false"
     inkscape:zoom="3.9564788"
     inkscape:cx="37.792004"
     inkscape:cy="65.601615"
     inkscape:window-x="0"
     inkscape:window-y="27"
     inkscape:window-maximized="1"
     inkscape:current-layer="Capa_1" /><g
     id="g3870"
     style="fill:#ffffff;fill-opacity:1"
     transform="matrix(0.93286121,0,0,0.93286121,4.6955808,3.9781261)"><g
       id="g3872"
       style="fill:#ffffff;fill-opacity:1"><path
         style="fill:#ffffff;fill-opacity:1;stroke:none"
         d="M 70.8125,-3.96875 C 62.877598,-2.3437239 61.551694,7.1458253 56.297535,12.066416 51.800558,17.628866 48.474133,24.905772 42.8125,28.90625 c -4.636438,0.05462 -7.466633,5.157307 -6.65625,9.1875 -4.113362,3.366428 -2.275511,11.707143 3.78125,10.4375 0.113745,4.762668 2.45744,10.546008 7.90625,11.03125 -3.091882,8.125341 -4.591925,16.951281 -4.34375,25.59375 -3.393505,9.409571 -11.510838,17.01574 -12.84375,27 0.75574,7.41416 12.464074,7.94809 14.355234,0.85946 4.671757,-7.18382 10.506704,-15.2104 14.519766,-21.95321 2.829805,2.454665 5.363663,5.984717 3.5,9.75 -1.002868,6.54375 -6.459722,15.29522 -0.65625,21 5.076784,3.98148 12.764062,-0.92854 12.28125,-7.125 1.623774,-7.89977 7.504155,-15.817711 5.25,-23.96875 C 79.417468,89.130137 76.444786,85.973183 77,85.6875 82.136802,87.532003 87.500148,82.820995 86.84375,77.5 87.859584,65.42368 84.970599,51.294399 74.96875,43.625 68.725583,39.317569 60.177252,39.180027 53.4375,41.8125 50.527264,39.453298 50.820569,34.448817 54.490981,32.987706 62.151659,23.544381 72.208624,15.751132 79.03125,5.65625 80.447984,0.69282472 75.946871,-4.6241273 70.8125,-3.96875 z m 1.78125,77.375 c -0.08511,2.648466 1.25977,10.422475 -1.5625,4.6875 0.30274,-1.420591 1.331069,-3.960833 1.5625,-4.6875 z"
         id="path3876"
         inkscape:connector-curvature="0" /><path
         style="fill:#ffffff;fill-opacity:1"
         d="M 73.5,20.125 C 61.143487,19.794643 54.396273,37.558509 63.96875,45.5 72.225795,54.239295 89.240117,47.296541 88.75,35.1875 89.090835,26.995512 81.709861,19.627211 73.5,20.125 z"
         id="circle3874"
         inkscape:connector-curvature="0" /></g></g><g
     id="g3"
     style="fill:#000000;fill-opacity:1"
     transform="matrix(0.93286121,0,0,0.93286121,4.6955808,3.9781261)"><g
       id="g5"
       style="fill:#000000;fill-opacity:1"><circle
         cx="74.055"
         cy="34.804001"
         r="10.663"
         id="circle7"
         sodipodi:cx="74.055"
         sodipodi:cy="34.804001"
         sodipodi:rx="10.663"
         sodipodi:ry="10.663"
         d="m 84.718,34.804001 c 0,5.889012 -4.773987,10.663 -10.663,10.663 -5.889012,0 -10.663,-4.773988 -10.663,-10.663 0,-5.889012 4.773988,-10.663 10.663,-10.663 5.889013,0 10.663,4.773988 10.663,10.663 z"
         style="fill:#000000;fill-opacity:1" /><path
         d="M 82.776,67.89 C 82.603,66.836 82.435,65.738 82.19,64.653 81.985,63.566 81.666,62.43 81.385,61.304 81.238,60.795 81.09,60.285 80.943,59.777 l -0.22,-0.758 -0.027,-0.094 -0.059,-0.172 -0.07,-0.206 -0.143,-0.412 c -0.196,-0.547 -0.367,-1.091 -0.583,-1.628 -0.227,-0.538 -0.448,-1.069 -0.667,-1.591 -0.245,-0.521 -0.511,-1.035 -0.762,-1.537 -0.256,-0.502 -0.573,-0.99 -0.852,-1.465 -0.597,-0.949 -1.271,-1.834 -1.98,-2.629 -0.372,-0.396 -1.896,-1.625 -2.319,-1.9 -0.797,-0.567 -1.467,-1.028 -2.382,-1.438 -0.204,-0.091 -4.626,-2.321 -8.576,-2.015 -0.652,-0.1 -11.316,3.012 -11.316,3.012 l -1.735,-4.323 -1.613,-3.919 -0.84,-1.976 -0.312,-0.707 c 1.128,-1.303 2.347,-2.695 3.643,-4.148 0.993,-1.122 2.019,-2.279 3.08,-3.441 1.058,-1.164 2.133,-2.347 3.207,-3.529 2.161,-2.355 4.335,-4.699 6.393,-6.881 1.022,-1.097 2.041,-2.132 2.989,-3.128 0.954,-0.991 1.854,-1.93 2.687,-2.795 1.666,-1.73 3.098,-3.135 4.079,-4.136 1,-0.985 1.571,-1.549 1.571,-1.549 0.176,-0.177 0.352,-0.387 0.495,-0.603 1.14,-1.725 0.667,-4.048 -1.06,-5.188 -1.724,-1.142 -4.047,-0.667 -5.188,1.057 0,0 -0.443,0.669 -1.218,1.841 -0.792,1.156 -1.896,2.832 -3.273,4.799 -0.688,0.983 -1.436,2.048 -2.226,3.175 -0.793,1.122 -1.613,2.32 -2.493,3.535 -1.744,2.44 -3.625,5.025 -5.521,7.6 -0.953,1.282 -1.906,2.564 -2.845,3.827 -0.937,1.264 -1.875,2.494 -2.783,3.684 -0.977,1.287 -1.921,2.514 -2.822,3.672 -0.066,-0.064 -0.129,-0.133 -0.2,-0.19 -0.06,-0.051 -0.123,-0.098 -0.185,-0.142 -0.292,-0.217 -0.964,-0.545 -1.691,-0.535 -0.741,-0.011 -1.41,0.295 -1.786,0.583 -0.166,0.126 -0.204,0.167 -0.31,0.269 -0.089,0.088 -0.177,0.186 -0.259,0.291 -0.334,0.42 -0.547,0.969 -0.606,1.432 -0.099,0.706 0.071,1.38 0.416,1.944 0.006,0.019 0.012,0.038 0.019,0.057 l 0.138,0.413 0.299,0.943 0.043,0.143 c -0.658,0.811 -1.239,1.517 -1.701,2.093 -0.883,1.082 -1.403,1.688 -1.403,1.688 -0.009,0.01 -0.021,0.023 -0.029,0.035 -0.37,0.468 -0.289,1.147 0.18,1.517 0.468,0.369 1.148,0.289 1.517,-0.18 0,0 0.494,-0.626 1.386,-1.701 0.24,-0.284 0.507,-0.605 0.797,-0.954 l 0.967,3.338 2.26,8.065 c 0.517,1.825 2.365,2.982 4.255,2.598 l 0.374,-0.076 4.04,-0.821 -4.93,15.568 c -0.253,0.797 -0.385,1.603 -0.431,2.4 -0.18,0.48 -0.29,0.998 -0.308,1.54 L 47.63,86.438 34.971,109.459 c -0.791,1.447 -0.36,3.296 1.042,4.223 1.478,0.978 3.469,0.572 4.447,-0.907 L 55.617,89.857 c 0.292,-0.447 0.499,-0.979 0.567,-1.544 l 0.043,-0.359 0.617,-5.121 c 0.229,0.029 0.458,0.053 0.688,0.066 l 10.631,12.377 -4.479,20.117 c -0.354,1.613 0.58,3.269 2.187,3.764 1.692,0.523 3.49,-0.426 4.014,-2.118 l 6.738,-21.823 c 0.331,-1.098 0.169,-2.352 -0.558,-3.35 L 75.87,91.597 66.309,78.463 c 0.467,-0.722 0.853,-1.512 1.124,-2.369 l 5.182,-16.366 c 0.195,0.383 0.367,0.798 0.558,1.201 l 0.265,0.579 0.289,0.733 c 0.192,0.489 0.385,0.981 0.578,1.474 0.306,0.907 0.654,1.781 0.922,2.722 0.302,0.925 0.526,1.84 0.76,2.728 0.195,0.886 0.387,1.745 0.511,2.558 0.131,0.811 0.23,1.58 0.279,2.277 0.035,0.353 0.053,0.685 0.061,0.998 0.017,0.316 0.021,0.612 0.014,0.885 0.002,0.552 -0.031,1.017 -0.066,1.379 -0.032,0.369 -0.077,0.626 -0.104,0.778 -0.01,0.061 -0.019,0.105 -0.023,0.138 0.003,0.004 0.021,-0.045 0.019,-0.036 L 76.62,78.33 c -0.451,1.502 0.354,3.108 1.849,3.637 1.54,0.543 3.229,-0.265 3.771,-1.804 0,0 0.026,-0.075 0.078,-0.222 0.027,-0.088 0.084,-0.252 0.127,-0.406 0.096,-0.329 0.214,-0.781 0.318,-1.328 0.109,-0.553 0.214,-1.205 0.283,-1.939 0.042,-0.37 0.074,-0.76 0.092,-1.166 0.027,-0.409 0.045,-0.837 0.043,-1.278 0.02,-0.889 -0.014,-1.836 -0.081,-2.83 C 83.04,69.99 82.912,68.96 82.776,67.89 z M 45.975,36.611 c -0.02,0.08 -0.044,0.159 -0.071,0.24 0.023,-0.07 0.036,-0.146 0.054,-0.219 0.004,-0.006 0.01,-0.013 0.017,-0.021 z m -0.988,1.578 c 0.076,-0.062 0.149,-0.129 0.219,-0.2 -0.01,0.01 -0.019,0.021 -0.028,0.031 -0.073,0.071 -0.116,0.11 -0.191,0.169 z m 0.387,-0.384 c 0.071,-0.085 0.136,-0.174 0.197,-0.267 -0.044,0.066 -0.086,0.137 -0.136,0.198 -0.02,0.025 -0.041,0.044 -0.061,0.069 z m 0.489,-0.836 c -0.059,0.154 -0.127,0.307 -0.213,0.452 0.083,-0.144 0.154,-0.295 0.213,-0.452 z"
         id="path9"
         inkscape:connector-curvature="0"
         style="fill:#000000;fill-opacity:1" /></g></g><g
     id="g11" /><g
     id="g13" /><g
     id="g15" /><g
     id="g17" /><g
     id="g19" /><g
     id="g21" /><g
     id="g23" /><g
     id="g25" /><g
     id="g27" /><g
     id="g29" /><g
     id="g31" /><g
     id="g33" /><g
     id="g35" /><g
     id="g37" /><g
     id="g39" /></svg>