<?xml version="1.0" encoding="iso-8859-1"?>
<!-- Generator: Adobe Illustrator 16.0.0, SVG Export Plug-In . SVG Version: 6.00 Build 0)  -->
<!DOCTYPE svg PUBLIC "-//W3C//DTD SVG 1.1//EN" "http://www.w3.org/Graphics/SVG/1.1/DTD/svg11.dtd">
<svg version="1.1" id="Capa_1" xmlns="http://www.w3.org/2000/svg" xmlns:xlink="http://www.w3.org/1999/xlink" x="0px" y="0px"
	 width="119.298px" height="119.298px" viewBox="0 0 119.298 119.298" style="enable-background:new 0 0 119.298 119.298;"
	 xml:space="preserve">
<g>
	<g>
		<circle cx="74.055" cy="34.804" r="10.663"/>
		<path d="M82.776,67.89c-0.173-1.054-0.341-2.152-0.586-3.237c-0.205-1.087-0.524-2.223-0.805-3.349
			c-0.147-0.509-0.295-1.019-0.442-1.527l-0.22-0.758l-0.027-0.094l-0.059-0.172l-0.07-0.206l-0.143-0.412
			c-0.196-0.547-0.367-1.091-0.583-1.628c-0.227-0.538-0.448-1.069-0.667-1.591c-0.245-0.521-0.511-1.035-0.762-1.537
			c-0.256-0.502-0.573-0.99-0.852-1.465c-0.597-0.949-1.271-1.834-1.98-2.629c-0.372-0.396-1.896-1.625-2.319-1.9
			c-0.797-0.567-1.467-1.028-2.382-1.438c-0.204-0.091-4.626-2.321-8.576-2.015c-0.652-0.1-11.316,3.012-11.316,3.012l-1.735-4.323
			l-1.613-3.919l-0.84-1.976l-0.312-0.707c1.128-1.303,2.347-2.695,3.643-4.148c0.993-1.122,2.019-2.279,3.08-3.441
			c1.058-1.164,2.133-2.347,3.207-3.529c2.161-2.355,4.335-4.699,6.393-6.881c1.022-1.097,2.041-2.132,2.989-3.128
			c0.954-0.991,1.854-1.93,2.687-2.795c1.666-1.73,3.098-3.135,4.079-4.136c1-0.985,1.571-1.549,1.571-1.549
			c0.176-0.177,0.352-0.387,0.495-0.603c1.14-1.725,0.667-4.048-1.06-5.188c-1.724-1.142-4.047-0.667-5.188,1.057
			c0,0-0.443,0.669-1.218,1.841c-0.792,1.156-1.896,2.832-3.273,4.799c-0.688,0.983-1.436,2.048-2.226,3.175
			c-0.793,1.122-1.613,2.32-2.493,3.535c-1.744,2.44-3.625,5.025-5.521,7.6c-0.953,1.282-1.906,2.564-2.845,3.827
			c-0.937,1.264-1.875,2.494-2.783,3.684c-0.977,1.287-1.921,2.514-2.822,3.672c-0.066-0.064-0.129-0.133-0.2-0.19
			c-0.06-0.051-0.123-0.098-0.185-0.142c-0.292-0.217-0.964-0.545-1.691-0.535c-0.741-0.011-1.41,0.295-1.786,0.583
			c-0.166,0.126-0.204,0.167-0.31,0.269c-0.089,0.088-0.177,0.186-0.259,0.291c-0.334,0.42-0.547,0.969-0.606,1.432
			c-0.099,0.706,0.071,1.38,0.416,1.944c0.006,0.019,0.012,0.038,0.019,0.057l0.138,0.413l0.299,0.943l0.043,0.143
			c-0.658,0.811-1.239,1.517-1.701,2.093c-0.883,1.082-1.403,1.688-1.403,1.688c-0.009,0.01-0.021,0.023-0.029,0.035
			c-0.37,0.468-0.289,1.147,0.18,1.517c0.468,0.369,1.148,0.289,1.517-0.18c0,0,0.494-0.626,1.386-1.701
			c0.24-0.284,0.507-0.605,0.797-0.954l0.967,3.338l2.26,8.065c0.517,1.825,2.365,2.982,4.255,2.598l0.374-0.076l4.04-0.821
			l-4.93,15.568c-0.253,0.797-0.385,1.603-0.431,2.4c-0.18,0.48-0.29,0.998-0.308,1.54l-0.424,12.309l-12.659,23.021
			c-0.791,1.447-0.36,3.296,1.042,4.223c1.478,0.978,3.469,0.572,4.447-0.907l15.157-22.918c0.292-0.447,0.499-0.979,0.567-1.544
			l0.043-0.359l0.617-5.121c0.229,0.029,0.458,0.053,0.688,0.066l10.631,12.377l-4.479,20.117c-0.354,1.613,0.58,3.269,2.187,3.764
			c1.692,0.523,3.49-0.426,4.014-2.118l6.738-21.823c0.331-1.098,0.169-2.352-0.558-3.35l-0.195-0.269l-9.561-13.134
			c0.467-0.722,0.853-1.512,1.124-2.369l5.182-16.366c0.195,0.383,0.367,0.798,0.558,1.201l0.265,0.579l0.289,0.733
			c0.192,0.489,0.385,0.981,0.578,1.474c0.306,0.907,0.654,1.781,0.922,2.722c0.302,0.925,0.526,1.84,0.76,2.728
			c0.195,0.886,0.387,1.745,0.511,2.558c0.131,0.811,0.23,1.58,0.279,2.277c0.035,0.353,0.053,0.685,0.061,0.998
			c0.017,0.316,0.021,0.612,0.014,0.885c0.002,0.552-0.031,1.017-0.066,1.379c-0.032,0.369-0.077,0.626-0.104,0.778
			c-0.01,0.061-0.019,0.105-0.023,0.138c0.003,0.004,0.021-0.045,0.019-0.036L76.62,78.33c-0.451,1.502,0.354,3.108,1.849,3.637
			c1.54,0.543,3.229-0.265,3.771-1.804c0,0,0.026-0.075,0.078-0.222c0.027-0.088,0.084-0.252,0.127-0.406
			c0.096-0.329,0.214-0.781,0.318-1.328c0.109-0.553,0.214-1.205,0.283-1.939c0.042-0.37,0.074-0.76,0.092-1.166
			c0.027-0.409,0.045-0.837,0.043-1.278c0.02-0.889-0.014-1.836-0.081-2.83C83.04,69.99,82.912,68.96,82.776,67.89z M45.975,36.611
			c-0.02,0.08-0.044,0.159-0.071,0.24c0.023-0.07,0.036-0.146,0.054-0.219C45.962,36.626,45.968,36.619,45.975,36.611z
			 M44.987,38.189c0.076-0.062,0.149-0.129,0.219-0.2c-0.01,0.01-0.019,0.021-0.028,0.031C45.105,38.091,45.062,38.13,44.987,38.189
			z M45.374,37.805c0.071-0.085,0.136-0.174,0.197-0.267c-0.044,0.066-0.086,0.137-0.136,0.198
			C45.415,37.761,45.394,37.78,45.374,37.805z M45.863,36.969c-0.059,0.154-0.127,0.307-0.213,0.452
			C45.733,37.277,45.804,37.126,45.863,36.969z"/>
	</g>
</g>
<g>
</g>
<g>
</g>
<g>
</g>
<g>
</g>
<g>
</g>
<g>
</g>
<g>
</g>
<g>
</g>
<g>
</g>
<g>
</g>
<g>
</g>
<g>
</g>
<g>
</g>
<g>
</g>
<g>
</g>
</svg>
