<?xml version="1.0" encoding="UTF-8" standalone="no"?>
<!-- Generator: Adobe Illustrator 18.0.0, SVG Export Plug-In . SVG Version: 6.00 Build 0)  -->

<svg
   xmlns:dc="http://purl.org/dc/elements/1.1/"
   xmlns:cc="http://creativecommons.org/ns#"
   xmlns:rdf="http://www.w3.org/1999/02/22-rdf-syntax-ns#"
   xmlns:svg="http://www.w3.org/2000/svg"
   xmlns="http://www.w3.org/2000/svg"
   xmlns:sodipodi="http://sodipodi.sourceforge.net/DTD/sodipodi-0.dtd"
   xmlns:inkscape="http://www.inkscape.org/namespaces/inkscape"
   version="1.1"
   id="Capa_1"
   x="0px"
   y="0px"
   viewBox="0 0 468.492 468.492"
   style="enable-background:new 0 0 468.492 468.492;"
   xml:space="preserve"
   inkscape:version="0.48.5 r10040"
   width="100%"
   height="100%"
   sodipodi:docname="demo.svg"><metadata
     id="metadata44"><rdf:RDF><cc:Work
         rdf:about=""><dc:format>image/svg+xml</dc:format><dc:type
           rdf:resource="http://purl.org/dc/dcmitype/StillImage" /></cc:Work></rdf:RDF></metadata><defs
     id="defs42" /><sodipodi:namedview
     pagecolor="#ffffff"
     bordercolor="#666666"
     borderopacity="1"
     objecttolerance="10"
     gridtolerance="10"
     guidetolerance="10"
     inkscape:pageopacity="0"
     inkscape:pageshadow="2"
     inkscape:window-width="1600"
     inkscape:window-height="837"
     id="namedview40"
     showgrid="false"
     inkscape:zoom="1.0074879"
     inkscape:cx="7.3173582"
     inkscape:cy="232.5465"
     inkscape:window-x="0"
     inkscape:window-y="27"
     inkscape:window-maximized="1"
     inkscape:current-layer="Capa_1" /><g
     id="XMLID_193_"
     transform="matrix(0.95899622,0,0,0.95899622,9.6200478,14.370232)"><path
       style="fill:#ffffff;fill-opacity:1"
       d="m 188.46875,130.5625 c -9.74019,0.02 -21.37749,1.09506 -26.84375,10.40625 -6.78321,11.52285 -10.17247,24.70528 -16.27721,36.6968 -3.62769,9.26859 -9.10122,18.60251 -11.34779,27.9282 7.99204,17.46762 15.96344,34.94471 23.96875,52.40625 1.82082,-5.03928 2.12853,-3.78643 2.34375,0.21875 1.82114,18.92202 17.56587,33.04985 18.6875,52.0625 -1.71099,8.68531 -11.60249,13.91906 -19.9375,11.3125 3.61104,14.08124 -3.26407,30.97955 6.9375,43.09375 9.03614,12.10214 28.96623,10.25502 37.71875,-0.8125 9.86007,13.16059 34.43157,12.06582 40.75,-4.125 5.86929,-13.52153 1.12048,-28.57441 2.6875,-42.78125 0.15529,-22.49662 -0.30456,-47.39357 0.21875,-68.40625 4.76216,8.72021 15.05012,14.72136 25.0031,11.35815 11.61802,-2.89067 19.80428,-16.22721 14.9969,-27.7019 -4.27675,-13.17651 -12.05057,-24.68688 -16.94934,-37.54097 -9.07564,-19.50444 -16.37081,-40.40361 -28.51941,-58.20903 -11.61246,-9.64966 -27.71523,-3.97864 -41.37404,-5.66891 -4.01771,-0.16141 -8.04219,-0.31835 -12.06346,-0.23734 z"
       id="XMLID_199_"
       inkscape:connector-curvature="0" /><path
       style="fill:#ffffff;fill-opacity:1"
       d="m 202.96875,67.0625 c -26.74179,-0.860141 -47.47074,31.1762 -35.875,55.21875 9.14041,24.13567 44.64025,32.69334 63.28125,14.34375 18.26041,-15.63975 17.50033,-48.844822 -3.3125,-62.09375 -6.95637,-4.953469 -15.4572,-7.804224 -24.09375,-7.46875 z"
       id="XMLID_198_"
       inkscape:connector-curvature="0" /><path
       style="fill:#ffffff;fill-opacity:1"
       d="M 70.78125,-3.53125 C 59.184808,-3.1403269 54.1029,9.2851694 50.664004,18.5592 35.84448,48.933735 23.480082,81.020391 7.3125,110.40625 c -15.3148991,3.26743 -22.494762,23.78439 -13.2250555,36.19779 8.6486873,19.26919 14.8714522,39.87053 25.7250555,57.95846 10.322917,7.75 20.645833,15.5 30.96875,23.25 0.650136,68.87121 -1.445297,137.85913 1.09375,206.65625 5.259254,18.71431 34.85424,23.56818 44.875,6.3125 9.50234,14.36604 34.76742,14.59058 42.5625,-1.5625 7.15647,-13.47224 2.13212,-29.29817 3.625,-43.84375 -0.014,-27.03125 0.0318,-54.06256 -0.0312,-81.09375 4.08211,9.1104 12.74828,17.45783 23.5,16 13.19448,-0.75741 24.73743,-14.36067 20.5,-27.5625 -3.24001,-13.23899 -11.72276,-24.40367 -16.2813,-37.15625 -10.6157,-22.36672 -19.12931,-45.99531 -32.21875,-67.0625 -10.97962,-10.32463 -27.22169,-5.59319 -40.71875,-6.96875 -8.574337,0.31628 -19.011786,2.47746 -25.51023,-4.66218 -9.414793,-6.04366 -19.894125,-12.9632 -22.326507,-24.61938 -4.544004,-10.82281 -9.088009,-21.64563 -13.632013,-32.46844 4.776121,-10.4342 9.518608,-20.88412 14.375,-31.28125 18.826023,11.12174 42.378757,2.90928 61.90625,11.75 6.64628,3.67841 8.29758,12.43091 14.28125,16.40625 7.38514,2.57069 13.14438,-5.27375 14.32038,-11.69147 C 149.34094,96.778335 157.90622,78.727271 166.125,60.53125 160.24189,39.695514 137.02395,29.221586 116.62597,30.299675 105.89362,29.667946 94.142642,31.039547 84.8125,24.75 90.064026,16.380771 89.270912,3.426286 79.625,-1.40625 c -2.687728,-1.4982312 -5.749626,-2.3166966 -8.84375,-2.125 z"
       id="XMLID_197_"
       inkscape:connector-curvature="0" /><path
       style="fill:#ffffff;fill-opacity:1"
       d="m 335.4375,136.375 c -27.5919,-0.77456 -48.83797,32.12036 -36.96875,57.03125 9.38143,24.04482 44.21043,33.3846 63.84375,15.96875 19.16682,-15.17012 20.3911,-48.61138 0.28125,-63.46875 -7.53283,-6.2392 -17.27529,-9.88585 -27.15625,-9.53125 z"
       id="XMLID_196_"
       inkscape:connector-curvature="0" /><path
       style="fill:#ffffff;fill-opacity:1"
       d="m 95.96875,126.5625 c -27.049086,-0.8822 -47.768566,31.8403 -35.5625,55.96875 9.611875,23.69872 44.56082,31.67216 63.03125,13.53125 17.94513,-15.46998 17.48964,-48.11171 -2.6875,-61.53125 -7.09225,-5.25525 -15.85142,-8.31556 -24.78125,-7.96875 z"
       id="XMLID_195_"
       inkscape:connector-curvature="0" /><path
       style="fill:#ffffff;fill-opacity:1"
       d="m 433.21875,-5.65625 c -20.4639,0.2201892 -34.67458,17.374004 -47.50445,31.205578 -4.26609,4.4088 -9.20152,8.703708 -15.18305,10.356922 C 367.21207,26.074491 355.42232,17.801264 345.375,23.3125 335.16762,28.403465 333.5794,43.13572 340.47597,51.598017 356.15708,86.814463 373.31221,121.76088 388,157.15625 c -3.212,10.74163 -4.97805,23.94738 -15.46875,30.21875 -6.88466,5.41342 -11.61561,14.5473 -20.21875,17.125 -17.64761,0.69186 -36.39635,-3.18914 -53.21875,3.5 -14.06774,8.34704 -15.30653,26.60034 -21.31892,40.28201 -9.81511,27.06984 -21.59939,53.70549 -28.43108,81.62424 0.0308,17.86336 25.07455,29.35164 38.09375,16.65625 3.52996,-3.4098 0.49049,8.10667 1.45587,10.46872 0.0987,33.405 -1.39997,67.01302 1.35663,100.28128 5.87554,18.37636 34.38815,22.9032 45.15625,6.6875 1.40476,-3.03862 2.95762,2.51417 4.96875,3.21875 11.20815,10.54166 32.69817,8.99096 39.78125,-5.6875 7.51419,-14.21821 2.38067,-30.79414 3.78125,-46.09375 0,-58.17708 0,-116.35417 0,-174.53125 12.84166,-13.25118 28.34725,-24.46849 38.79264,-39.7586 6.17671,-18.95686 13.72967,-37.85293 16.30111,-57.6164 -1.61783,-13.26015 -15.98938,-23.14667 -28.96875,-19.9375 -2.03173,-4.66474 -4.51085,-8.95638 -6.3125,-13.71875 20.6712,-6.84894 29.73132,-29.78403 48.875,-39 7.02711,-2.667786 14.49828,1.026661 21.375,0.375 7.18329,-3.06809 6.23746,-13.054835 1.85768,-18.124611 C 467.18082,34.572765 458.81737,15.880503 450.375,-2.78125 c -5.63263,-1.477636 -11.25939,-3.1485546 -17.15625,-2.875 z"
       id="XMLID_194_"
       inkscape:connector-curvature="0" /></g><g
     id="g10"
     transform="matrix(0.95899622,0,0,0.95899622,9.6200478,14.370232)" /><g
     id="g12"
     transform="matrix(0.95899622,0,0,0.95899622,9.6200478,14.370232)" /><g
     id="g14"
     transform="matrix(0.95899622,0,0,0.95899622,9.6200478,14.370232)" /><g
     id="g16"
     transform="matrix(0.95899622,0,0,0.95899622,9.6200478,14.370232)" /><g
     id="g18"
     transform="matrix(0.95899622,0,0,0.95899622,9.6200478,14.370232)" /><g
     id="g20"
     transform="matrix(0.95899622,0,0,0.95899622,9.6200478,14.370232)" /><g
     id="g22"
     transform="matrix(0.95899622,0,0,0.95899622,9.6200478,14.370232)" /><g
     id="g24"
     transform="matrix(0.95899622,0,0,0.95899622,9.6200478,14.370232)" /><g
     id="g26"
     transform="matrix(0.95899622,0,0,0.95899622,9.6200478,14.370232)" /><g
     id="g28"
     transform="matrix(0.95899622,0,0,0.95899622,9.6200478,14.370232)" /><g
     id="g30"
     transform="matrix(0.95899622,0,0,0.95899622,9.6200478,14.370232)" /><g
     id="g32"
     transform="matrix(0.95899622,0,0,0.95899622,9.6200478,14.370232)" /><g
     id="g34"
     transform="matrix(0.95899622,0,0,0.95899622,9.6200478,14.370232)" /><g
     id="g36"
     transform="matrix(0.95899622,0,0,0.95899622,9.6200478,14.370232)" /><g
     id="g38"
     transform="matrix(0.95899622,0,0,0.95899622,9.6200478,14.370232)" /><g
     id="g3837"
     transform="matrix(0.95899622,0,0,0.95899622,9.6200438,14.370232)"><path
       d="m 271.765,249.637 c 5.93,-2.704 8.533,-9.698 5.822,-15.628 l -39.345,-86.144 c -2.421,-5.331 -7.416,-7.047 -13.454,-7.047 h -42.193 c -6.037,0 -11.217,1.801 -13.561,7.271 l -24.467,56.551 13.191,28.888 12.501,-28.904 c 0,32.864 -0.03,52.858 -0.03,56.222 l 16.763,36.725 c 5.546,12.158 0.184,26.515 -11.966,32.069 -1.564,0.712 -3.173,1.225 -4.797,1.592 v 17.75 c 0,7.813 6.344,14.148 14.156,14.148 7.815,0 14.158,-6.336 14.158,-14.148 v -84.353 h 10.311 v 84.353 c 0,7.813 6.344,14.148 14.158,14.148 7.813,0 14.156,-6.336 14.156,-14.148 0,-69.997 -0.045,-139.379 -0.045,-146.795 l 19.013,41.628 c 2.699,5.907 9.669,8.542 15.629,5.822 z"
       id="path3839"
       inkscape:connector-curvature="0" /><path
       d="m 203.83,136.55 c 16.455,0 29.77,-13.314 29.77,-29.746 0,-16.44 -13.315,-29.754 -29.77,-29.754 -16.409,0 -29.754,13.314 -29.754,29.754 0,16.432 13.345,29.746 29.754,29.746 z"
       id="path3841"
       inkscape:connector-curvature="0" /><path
       d="m 176.558,302.335 -42.426,-92.947 c -2.649,-5.791 -8.12,-7.614 -14.539,-7.614 H 75.115 L 46.556,180.377 25.29,129.61 47.001,82.405 c 20.623,26.23 66.234,-1.839 82.812,33.232 C 138.301,97.175 146.79,78.728 155.278,60.258 138.699,25.194 93.088,53.278 72.45,27.04 L 77.536,15.986 C 79.083,12.631 77.613,8.647 74.258,7.107 70.856,5.537 66.934,7.03 65.371,10.394 l -50.5,109.831 c -2.328,-0.406 -4.733,-0.406 -7.062,0.582 -6.481,2.712 -9.531,10.166 -6.819,16.654 l 24.76,59.126 35.023,26.238 c 0,97.382 -0.06,62.55 -0.06,203.537 0,8.435 6.849,15.267 15.276,15.267 8.427,0 15.275,-6.832 15.275,-15.267 v -90.994 h 11.139 v 90.994 c 0,8.435 6.849,15.267 15.275,15.267 8.427,0 15.274,-6.832 15.274,-15.267 0,-84.796 -0.045,-130.775 -0.045,-158.332 l 20.485,44.877 c 2.926,6.404 10.479,9.192 16.867,6.288 6.391,-2.917 9.211,-10.464 6.299,-16.86 z"
       id="path3843"
       inkscape:connector-curvature="0" /><path
       d="m 336.361,208.362 c 17.113,0 30.98,-13.874 30.98,-30.996 0,-17.122 -13.867,-30.988 -30.98,-30.988 -17.115,0 -30.98,13.866 -30.98,30.988 0,17.122 13.865,30.996 30.98,30.996 z"
       id="path3845"
       inkscape:connector-curvature="0" /><path
       d="m 96.842,136.55 c -16.44,0 -29.754,13.308 -29.754,29.754 0,16.425 13.313,29.747 29.754,29.747 16.424,0 29.753,-13.322 29.753,-29.747 0,-16.447 -13.33,-29.754 -29.753,-29.754 z"
       id="path3847"
       inkscape:connector-curvature="0" /><path
       d="m 443.227,5.698 c -37.355,-10.373 -45.935,42.486 -79.274,40.97 l -5.039,-11.062 c -1.549,-3.371 -5.561,-4.857 -8.872,-3.31 -3.37,1.532 -4.855,5.5 -3.324,8.871 l 52.246,114.619 -8.748,28.506 -31.134,30.023 h -46.424 c -4.733,0 -13.16,3.577 -15.49,9.889 l -36.863,99.827 c -2.543,6.864 0.966,14.487 7.83,17.022 6.925,2.551 14.494,-1.004 17.021,-7.845 l 13.651,-36.97 c 0,7.898 -0.046,30.329 -0.046,152.002 0,8.788 7.125,15.904 15.903,15.904 8.779,0 15.903,-7.116 15.903,-15.904 v -94.777 h 11.584 v 94.777 c 0,8.788 7.124,15.904 15.903,15.904 8.778,0 15.903,-7.116 15.903,-15.904 0,-152.509 -0.03,-58.896 -0.03,-211.434 l 37.14,-35.814 c 1.623,-1.556 2.819,-3.502 3.478,-5.646 l 13.834,-45.076 c 2.145,-7.001 -1.777,-14.417 -8.779,-16.562 -5.301,-1.647 -10.771,0.191 -14.079,4.175 l -16.287,-35.76 c 33.339,1.509 41.903,-51.342 79.257,-40.977 C 460.065,42.668 451.654,24.183 443.227,5.698 z"
       id="path3849"
       inkscape:connector-curvature="0" /></g></svg>