<?xml version="1.0" encoding="UTF-8" standalone="no"?>
<!-- Generator: Adobe Illustrator 16.0.0, SVG Export Plug-In . SVG Version: 6.00 Build 0)  -->

<svg
   xmlns:dc="http://purl.org/dc/elements/1.1/"
   xmlns:cc="http://creativecommons.org/ns#"
   xmlns:rdf="http://www.w3.org/1999/02/22-rdf-syntax-ns#"
   xmlns:svg="http://www.w3.org/2000/svg"
   xmlns="http://www.w3.org/2000/svg"
   xmlns:sodipodi="http://sodipodi.sourceforge.net/DTD/sodipodi-0.dtd"
   xmlns:inkscape="http://www.inkscape.org/namespaces/inkscape"
   version="1.1"
   id="Capa_1"
   x="0px"
   y="0px"
   width="533.333px"
   height="533.333px"
   viewBox="0 0 533.333 533.333"
   style="enable-background:new 0 0 533.333 533.333;"
   xml:space="preserve"
   inkscape:version="0.48.5 r10040"
   sodipodi:docname="fire.svg"><metadata
     id="metadata41"><rdf:RDF><cc:Work
         rdf:about=""><dc:format>image/svg+xml</dc:format><dc:type
           rdf:resource="http://purl.org/dc/dcmitype/StillImage" /></cc:Work></rdf:RDF></metadata><defs
     id="defs39" /><sodipodi:namedview
     pagecolor="#ffffff"
     bordercolor="#666666"
     borderopacity="1"
     objecttolerance="10"
     gridtolerance="10"
     guidetolerance="10"
     inkscape:pageopacity="0"
     inkscape:pageshadow="2"
     inkscape:window-width="1600"
     inkscape:window-height="837"
     id="namedview37"
     showgrid="false"
     inkscape:zoom="0.88500054"
     inkscape:cx="87.508771"
     inkscape:cy="247.86963"
     inkscape:window-x="0"
     inkscape:window-y="27"
     inkscape:window-maximized="1"
     inkscape:current-layer="Capa_1" /><g
     id="g3018"
     transform="matrix(0.90633635,0,0,0.90633635,27.744282,17.470266)"><path
       style="fill:#ffffff;fill-opacity:1"
       d="m 209,-16.5625 c 9.98724,43.870727 1.18408,90.014021 -17.28125,130.40625 -15.34597,33.32963 -34.79509,64.65164 -56.875,93.75 C 130.63744,183.72766 123.8547,158.95689 108.28125,140 c -8.759445,-5.69498 -21.915817,3.39917 -19.6875,13.5625 -3.441278,49.05213 -34.446494,89.8195 -51.842526,134.52127 -17.92254,45.1669 -22.766121,98.3763 -1.813724,143.32248 21.362909,44.48162 61.185038,76.24841 102.40625,101.53125 20.40614,12.513 41.3828,23.98049 62.34375,35.5625 -19.26619,-34.99649 -40.76296,-71.93987 -39.5,-113.25 0.20655,-34.2628 23.01342,-61.93649 39.73023,-90.14054 6.27524,-10.08512 10.85235,-21.02704 15.26977,-32.07821 3.49748,27.37918 -4.82484,54.23424 -14.34375,79.53125 52.25026,-36.14134 83.28728,-98.33139 85.78125,-161.375 65.11374,62.24078 91.65245,162.5015 63.46875,248.34375 -8.32457,24.76391 -21.68834,47.44764 -35.5625,69.5625 58.85864,-29.7045 117.42053,-65.25536 156.59375,-119.4375 31.24431,-40.91145 44.61546,-93.7048 40.1942,-144.8087 -3.66099,-46.47359 -22.77482,-90.19856 -45.93055,-130.01567 -20.61247,-33.94196 -46.12687,-65.46397 -77.26001,-90.315361 -12.76563,-9.144676 -26.57666,-16.86546 -40.28489,-24.610269 17.11629,27.530524 35.30868,58.22981 31.92319,91.93164 -0.3752,1.724 -0.91129,10.12054 -1.89194,7.09961 C 356.26406,96.863637 317.89797,38.43217 261.875,2.6875 245.69849,-7.8519864 227.51331,-15.459293 208.53125,-19.5 c 0.15625,0.979167 0.3125,1.958333 0.46875,2.9375 z"
       id="path3020"
       inkscape:connector-curvature="0" /></g><g
     id="g3"
     transform="matrix(0.90633635,0,0,0.90633635,27.744282,17.470266)"><path
       d="m 165.494,533.333 c -35.545,-73.962 -16.616,-116.343 10.703,-156.272 29.917,-43.728 37.627,-87.013 37.627,-87.013 0,0 23.518,30.573 14.11,78.39 41.548,-46.25 49.389,-119.938 43.115,-148.159 93.914,65.63 134.051,207.737 79.96,313.054 287.695,-162.776 71.562,-406.339 33.934,-433.775 12.543,27.435 14.922,73.88 -10.416,96.42 C 331.635,33.333 225.583,0 225.583,0 238.126,83.877 180.117,175.596 124.179,244.13 122.214,210.684 120.126,187.605 102.538,155.599 98.59,216.357 52.157,265.884 39.583,326.76 22.551,409.2 52.341,469.562 165.494,533.333 z"
       id="path5"
       inkscape:connector-curvature="0" /></g><g
     id="g7" /><g
     id="g9" /><g
     id="g11" /><g
     id="g13" /><g
     id="g15" /><g
     id="g17" /><g
     id="g19" /><g
     id="g21" /><g
     id="g23" /><g
     id="g25" /><g
     id="g27" /><g
     id="g29" /><g
     id="g31" /><g
     id="g33" /><g
     id="g35" /></svg>