<?xml version="1.0" encoding="UTF-8" standalone="no"?>
<!-- Generator: Adobe Illustrator 16.0.0, SVG Export Plug-In . SVG Version: 6.00 Build 0)  -->

<svg
   xmlns:dc="http://purl.org/dc/elements/1.1/"
   xmlns:cc="http://creativecommons.org/ns#"
   xmlns:rdf="http://www.w3.org/1999/02/22-rdf-syntax-ns#"
   xmlns:svg="http://www.w3.org/2000/svg"
   xmlns="http://www.w3.org/2000/svg"
   xmlns:sodipodi="http://sodipodi.sourceforge.net/DTD/sodipodi-0.dtd"
   xmlns:inkscape="http://www.inkscape.org/namespaces/inkscape"
   version="1.1"
   id="Capa_1"
   x="0px"
   y="0px"
   width="79.536px"
   height="79.536px"
   viewBox="0 0 79.536 79.536"
   style="enable-background:new 0 0 79.536 79.536;"
   xml:space="preserve"
   inkscape:version="0.48.5 r10040"
   sodipodi:docname="house.svg"><metadata
     id="metadata41"><rdf:RDF><cc:Work
         rdf:about=""><dc:format>image/svg+xml</dc:format><dc:type
           rdf:resource="http://purl.org/dc/dcmitype/StillImage" /></cc:Work></rdf:RDF></metadata><defs
     id="defs39" /><sodipodi:namedview
     pagecolor="#ffffff"
     bordercolor="#666666"
     borderopacity="1"
     objecttolerance="10"
     gridtolerance="10"
     guidetolerance="10"
     inkscape:pageopacity="0"
     inkscape:pageshadow="2"
     inkscape:window-width="1600"
     inkscape:window-height="837"
     id="namedview37"
     showgrid="false"
     inkscape:zoom="5.9344194"
     inkscape:cx="29.38304"
     inkscape:cy="32.557212"
     inkscape:window-x="0"
     inkscape:window-y="27"
     inkscape:window-maximized="1"
     inkscape:current-layer="Capa_1" /><g
     id="g3"
     transform="matrix(0.90383564,0,0,0.90383564,4.5894581,6.1460277)"><path
       style="fill:#ffffff;fill-opacity:1"
       d="M 70.28125,-1.15625 C 66.948648,0.75091702 63.330032,3.204912 62.375,7.125 56.97281,2.6545874 47.994631,6.6841564 48,13.8125 c -0.460509,1.555262 0.07603,5.669285 -1.875,5.84375 -1.179806,-2.863365 -0.49899,-6.125567 -0.6875,-9.1875 -2.390047,2.451235 -5.082493,5.946489 -6.90625,8.375 -3.810549,-7.392202 -7.588078,1.208083 -11.426461,4.113961 C 16.45113,33.592643 5.8355211,44.265798 -4.84375,54.875 c 6.1799076,0.0076 14.4201144,-2.045114 11.5625,7 0,6.375 0,12.75 0,19.125 8.604167,0 17.208333,0 25.8125,0 0.709155,-5.436678 -1.393333,-13.685 1,-17.4375 7.276665,-1.047498 2.16431,10.294023 3.6875,15 0.896364,5.249469 11.163462,1.128205 16,2.4375 7.758895,1.488062 11.856424,-0.685242 9.8125,-9 0.737844,-5.303823 -1.432675,-13.516008 1,-17.125 7.341731,0.490492 13.647348,0.582381 5.00368,-5.52757 C 67.491225,46.459748 58.968587,42.946646 65.125,40.90625 68.710342,37.274112 73.119228,32.078169 78.898661,34.048482 84.07074,36.10231 78.654321,30.052629 76.9375,28.25 75.128876,26.549173 71.496995,26.462609 74.625,23.8125 77.162088,20.616147 76.384238,15.625737 75.09375,12.84375 78.936967,12.209194 78.911856,8.2259563 79.4375,5.375 81.629029,2.9771824 85.732136,-2.6439575 79.359013,0.04572874 75.548207,0.12818808 71.269284,2.7534132 72,7.0625 70.796803,2.519899 75.141892,-0.93256054 76.5625,-4.875 74.46875,-3.6354167 72.375,-2.3958333 70.28125,-1.15625 z M 62.375,10.53125 c 0.842616,1.891215 -2.227104,6.967362 -2.40625,2.8125 0.04212,-0.992839 2.038693,-4.242808 2.40625,-2.8125 z"
       id="path5"
       inkscape:connector-curvature="0" /></g><g
     id="g7" /><g
     id="g9" /><g
     id="g11" /><g
     id="g13" /><g
     id="g15" /><g
     id="g17" /><g
     id="g19" /><g
     id="g21" /><g
     id="g23" /><g
     id="g25" /><g
     id="g27" /><g
     id="g29" /><g
     id="g31" /><g
     id="g33" /><g
     id="g35" /><g
     id="g3018"
     transform="matrix(0.90383564,0,0,0.90383564,4.5894619,6.1460277)"><path
       id="path3020"
       d="M 74.472,10.941 C 74.296,10.617 74.172,10.353 74.027,10.05 74.152,9.431 74.245,8.629 74.11,7.738 73.851,6.371 73.996,5.025 74.452,4.302 75.311,2.935 77.238,2.334 79.537,2.024 78.999,3.214 77.176,4.346 77.067,5.946 77,7.15 77.175,8.662 76.72,9.382 c -0.492,0.79 -1.264,1.28 -2.248,1.559 z m 1.243,18.888 c -0.182,-0.153 -0.357,-0.27 -0.539,-0.401 -0.372,-0.292 -0.756,-0.552 -1.134,-0.748 -0.196,-0.106 -0.389,-0.187 -0.585,-0.262 -0.362,-0.143 -0.73,-0.27 -1.077,-0.35 -0.171,-0.041 -0.342,-0.083 -0.508,-0.111 -0.383,-0.062 -0.756,-0.093 -1.098,-0.106 -0.093,0 -0.186,-0.01 -0.274,-0.01 -0.486,0 -0.916,0.054 -1.227,0.096 -0.207,0.031 -0.378,0.054 -0.487,0.075 -0.041,0.01 -0.145,0.031 -0.165,0.031 -0.011,0 -0.021,-0.01 -0.011,-0.01 0.394,-0.642 8.549,-7.443 4.806,-13.409 C 69.112,7.739 68.9,4.292 71.35,0.523 c -0.099,0.143 -7.638,3.811 -7.084,8.324 0.15,1.253 0.119,2.328 0.011,3.304 -0.021,0.197 -0.036,0.404 -0.078,0.601 -0.145,0.88 -0.378,1.639 -0.693,2.258 -0.057,0.106 -0.114,0.176 -0.176,0.272 -0.312,0.528 -0.663,0.953 -1.047,1.25 -0.072,0.052 -0.113,0.122 -0.186,0.164 -0.425,0.292 -0.865,0.424 -1.295,0.445 -0.047,0.01 -0.083,0.054 -0.124,0.054 -0.052,0 -0.094,-0.054 -0.135,-0.064 C 60.103,17.1 59.684,16.988 59.331,16.686 56.007,13.817 59.466,9.323 60.833,8.494 60.336,8.114 59.735,7.831 59.104,7.624 58.897,7.551 58.69,7.528 58.482,7.492 58.037,7.386 57.591,7.305 57.126,7.284 c -0.207,0 -0.414,0.011 -0.616,0.021 -0.896,0.044 -1.786,0.176 -2.553,0.521 -6.39,2.806 -2.195,12.005 -6.938,13.888 -0.321,0.126 -0.616,0.186 -0.88,0.186 -0.062,0 -0.104,-0.044 -0.161,-0.054 -0.149,-0.006 -0.284,-0.06 -0.419,-0.122 -0.166,-0.064 -0.342,-0.132 -0.481,-0.249 -0.119,-0.09 -0.218,-0.197 -0.316,-0.318 -0.129,-0.15 -0.238,-0.313 -0.342,-0.5 -0.083,-0.143 -0.155,-0.29 -0.228,-0.445 -0.094,-0.218 -0.155,-0.415 -0.233,-0.643 -0.057,-0.163 -0.108,-0.326 -0.14,-0.507 -0.067,-0.228 -0.108,-0.456 -0.145,-0.683 -0.042,-0.176 -0.062,-0.329 -0.083,-0.5 -0.036,-0.228 -0.058,-0.425 -0.083,-0.632 -0.011,-0.143 -0.031,-0.274 -0.036,-0.412 -0.016,-0.186 -0.026,-0.308 -0.026,-0.456 0,-0.109 -0.01,-0.218 -0.01,-0.293 0,-0.176 0,-0.292 0,-0.292 -0.942,1.02 -1.704,2.037 -2.377,3.039 -0.191,0.29 -0.362,0.578 -0.536,0.87 -0.456,0.769 -0.844,1.52 -1.146,2.289 -0.058,0.111 -0.111,0.238 -0.153,0.362 -0.052,0.137 -0.132,0.279 -0.181,0.412 -0.34,0.976 -0.583,1.937 -0.71,2.869 -0.021,0.181 -0.01,0.344 -0.025,0.51 -0.07,0.785 -0.08,1.554 -0.011,2.312 0.026,0.264 0.052,0.546 0.096,0.815 0.111,0.707 0.27,1.39 0.487,2.063 0.057,0.187 0.101,0.37 0.157,0.552 0.313,0.82 0.696,1.6 1.147,2.353 0.116,0.192 0.254,0.365 0.375,0.562 0.389,0.557 0.801,1.108 1.259,1.623 0.173,0.197 0.344,0.391 0.538,0.588 0.547,0.575 1.142,1.113 1.773,1.613 0.088,0.064 0.155,0.132 0.238,0.196 0.72,0.536 1.491,1.002 2.294,1.427 0.233,0.122 0.481,0.238 0.72,0.35 0.611,0.29 1.248,0.551 1.896,0.774 0.248,0.101 0.497,0.192 0.756,0.254 0.87,0.259 1.761,0.476 2.661,0.587 0.114,0.023 0.238,0.013 0.353,0.034 0.745,0.083 1.502,0.096 2.258,0.072 0.621,-0.011 1.248,-0.106 1.874,-0.194 0.44,-0.064 0.886,-0.106 1.32,-0.217 0.073,-0.013 0.141,-0.054 0.218,-0.075 0.554,-0.132 1.118,-0.35 1.662,-0.567 0.409,-0.153 0.818,-0.272 1.217,-0.479 0.668,-0.321 1.29,-0.771 1.921,-1.217 0.332,-0.23 0.663,-0.394 0.984,-0.653 0.916,-0.769 1.791,-1.649 2.6,-2.705 0.435,-0.557 0.9,-1.033 1.388,-1.468 0.165,-0.145 0.331,-0.259 0.491,-0.394 0.342,-0.269 0.689,-0.518 1.036,-0.746 0.191,-0.114 0.378,-0.23 0.575,-0.331 0.336,-0.184 0.673,-0.36 1.015,-0.508 0.181,-0.085 0.362,-0.155 0.549,-0.228 0.367,-0.146 0.729,-0.259 1.077,-0.363 0.135,-0.042 0.27,-0.083 0.394,-0.119 0.476,-0.125 0.932,-0.217 1.346,-0.282 0.031,-0.011 0.062,-0.011 0.104,-0.011 0.373,-0.064 0.715,-0.096 1.005,-0.111 0.104,-0.01 0.16,-0.01 0.259,-0.01 0.114,-0.01 0.259,-0.021 0.362,-0.021 0.062,0 0.042,0.011 0.094,0.011 0.274,0.01 0.466,0.021 0.481,0.041 -0.496,-0.767 -1.024,-1.345 -1.562,-1.844 z m -38.953,3.834 c -1.877,-4.305 -1.68,-8.955 0.355,-13.408 L 34.864,17.994 0,52.864 H 8.728 V 79.013 H 30.52 v -17.44 h 8.708 v 17.44 H 61.02 V 52.864 h 8.72 l -8.865,-8.865 c -1.9,0.684 -3.889,1.139 -6.007,1.139 C 47.142,45.137 39.683,40.413 36.762,33.663 z"
       style="fill:#010002"
       inkscape:connector-curvature="0" /></g></svg>